# xmcd CD database file
#
# Track frame offsets:
#	150
#	14122
#	32335
#	44067
#	57355
#	68367
#	96115
#	113690
#	130382
#	146900
#	164645
#	176317
#
# Disc length: 2597 seconds
#
# Revision: 0
# Processed by: cddbd v1.4PL0 Copyright (c) Steve Scherf et al.
# Submitted via: CDex 1.40Release
#
DISCID=a80a230c
DTITLE=Craig Chambers - The Cowboy's Conscience
DYEAR=1900
DGENRE=Country
TTITLE0=The Cowboy Serenade(My Last Cigarette)
TTITLE1=Below The Kinney Rim
TTITLE2=To See The Ponies Run Again
TTITLE3=Before There Was Mesquite
TTITLE4=Albuquerque
TTITLE5=The Cowboy's Conscience
TTITLE6=A Cowboy's Lullaby
TTITLE7=The Pistol
TTITLE8=Pinto Beans
TTITLE9=Me And My Uncle
TTITLE10=Cherokee Medley
TTITLE11=Cowboy Serenade
EXTD=ID3G: 2
EXTT0=
EXTT1=
EXTT2=
EXTT3=
EXTT4=
EXTT5=
EXTT6=
EXTT7=
EXTT8=
EXTT9=
EXTT10=
EXTT11=
PLAYORDER=
